<?xml version="1.0" encoding="UTF-8"?>
<svg width="420px" height="420px" viewBox="0 0 420 420" version="1.1" xmlns="http://www.w3.org/2000/svg" xmlns:xlink="http://www.w3.org/1999/xlink">
    <!-- Generator: Sketch 46.2 (44496) - http://www.bohemiancoding.com/sketch -->
    <title>react-russian-router</title>
    <desc>Created with Sketch.</desc>
    <defs>
        <linearGradient x1="20.1538086%" y1="79.7802734%" x2="79.7033691%" y2="20.7800293%" id="linearGradient-1">
            <stop stop-color="#FF7D7D" offset="0%"></stop>
            <stop stop-color="#E52222" offset="100%"></stop>
        </linearGradient>
        <linearGradient x1="20.357666%" y1="79.8303223%" x2="79.364624%" y2="20.8416748%" id="linearGradient-2">
            <stop stop-color="#47B7FF" offset="0%"></stop>
            <stop stop-color="#3E97FF" offset="100%"></stop>
        </linearGradient>
        <linearGradient x1="74.4763184%" y1="24.7009277%" x2="20.0463867%" y2="81.1547852%" id="linearGradient-3">
            <stop stop-color="#E8E8E8" offset="0%"></stop>
            <stop stop-color="#FFFFFF" offset="100%"></stop>
        </linearGradient>
        <linearGradient x1="50%" y1="100%" x2="50%" y2="0%" id="linearGradient-4">
            <stop stop-color="#6F74D0" offset="0%"></stop>
            <stop stop-color="#656AC8" offset="100%"></stop>
        </linearGradient>
        <linearGradient x1="50%" y1="0%" x2="50%" y2="100%" id="linearGradient-5">
            <stop stop-color="#A8DEFF" offset="0%"></stop>
            <stop stop-color="#ADE0FF" offset="100%"></stop>
        </linearGradient>
        <linearGradient x1="50%" y1="58.0477628%" x2="50%" y2="3.061617e-15%" id="linearGradient-6">
            <stop stop-color="#E1F0FF" stop-opacity="0" offset="0%"></stop>
            <stop stop-color="#6EAFFC" offset="100%"></stop>
        </linearGradient>
        <linearGradient x1="50%" y1="78.6432065%" x2="50%" y2="3.2099268%" id="linearGradient-7">
            <stop stop-color="#FFFFFF" stop-opacity="0" offset="0%"></stop>
            <stop stop-color="#BABABA" offset="100%"></stop>
        </linearGradient>
        <linearGradient x1="50%" y1="3.5473704%" x2="50%" y2="72.3356305%" id="linearGradient-8">
            <stop stop-color="#59EAFF" offset="0%"></stop>
            <stop stop-color="#59EAFF" stop-opacity="0" offset="100%"></stop>
        </linearGradient>
        <linearGradient x1="50%" y1="0%" x2="50%" y2="100%" id="linearGradient-9">
            <stop stop-color="#52DCF0" offset="0%"></stop>
            <stop stop-color="#58E9FE" offset="100%"></stop>
        </linearGradient>
    </defs>
    <g id="Page-1" stroke="none" stroke-width="1" fill="none" fill-rule="evenodd">
        <g id="react-russian-router">
            <path d="M101.71644,176.077061 L274.427927,219.282162 L274.427927,219.282162 C276.577558,219.819909 278.255811,221.49866 278.79292,223.648451 L321.925195,396.286464 L321.925195,396.286464 C322.326802,397.893909 321.349279,399.522567 319.741834,399.924175 C319.264145,400.043522 318.764424,400.04346 318.286764,399.923995 L145.684336,356.755235 L145.684336,356.755235 C143.535712,356.217853 141.857867,354.540507 141.319847,352.392041 L98.0782619,179.716139 L98.0782619,179.716139 C97.6757797,178.108914 98.6524171,176.479724 100.259643,176.077242 C100.737851,175.957488 101.238202,175.957426 101.71644,176.077061 Z" id="Red" fill="url(#linearGradient-1)" transform="translate(210.000000, 288.000000) rotate(-45.000000) translate(-210.000000, -288.000000) "></path>
            <path d="M101.71644,98.0770614 L274.427927,141.282162 L274.427927,141.282162 C276.577558,141.819909 278.255811,143.49866 278.79292,145.648451 L321.925195,318.286464 L321.925195,318.286464 C322.326802,319.893909 321.349279,321.522567 319.741834,321.924175 C319.264145,322.043522 318.764424,322.04346 318.286764,321.923995 L145.684336,278.755235 L145.684336,278.755235 C143.535712,278.217853 141.857867,276.540507 141.319847,274.392041 L98.0782619,101.716139 L98.0782619,101.716139 C97.6757797,100.108914 98.6524171,98.4797238 100.259643,98.0772416 C100.737851,97.9574884 101.238202,97.9574265 101.71644,98.0770614 Z" id="Blue" fill="url(#linearGradient-2)" transform="translate(210.000000, 210.000000) rotate(-45.000000) translate(-210.000000, -210.000000) "></path>
            <path d="M101.71644,20.0770614 L274.427927,63.2821617 L274.427927,63.2821617 C276.577558,63.8199085 278.255811,65.4986599 278.79292,67.6484511 L321.925195,240.286464 L321.925195,240.286464 C322.326802,241.893909 321.349279,243.522567 319.741834,243.924175 C319.264145,244.043522 318.764424,244.04346 318.286764,243.923995 L145.684336,200.755235 L145.684336,200.755235 C143.535712,200.217853 141.857867,198.540507 141.319847,196.392041 L98.0782619,23.7161395 L98.0782619,23.7161395 C97.6757797,22.1089139 98.6524171,20.4797238 100.259643,20.0772416 C100.737851,19.9574884 101.238202,19.9574265 101.71644,20.0770614 Z" id="White" fill="url(#linearGradient-3)" transform="translate(210.000000, 132.000000) rotate(-45.000000) translate(-210.000000, -132.000000) "></path>
            <path d="M115.040099,248.989064 L206.966574,193.851727 L206.966574,193.851727 C208.866838,192.711952 211.240598,192.712304 213.140524,193.852643 L305.003645,248.989064 L213.139251,304.095335 L213.139251,304.095335 C211.239957,305.234656 208.867479,305.235008 206.967848,304.096251 L115.040099,248.989064 Z" id="Down" fill="url(#linearGradient-4)"></path>
            <path d="M115.040099,170.989064 L206.966574,115.851727 L206.966574,115.851727 C208.866838,114.711952 211.240598,114.712304 213.140524,115.852643 L305.003645,170.989064 L213.139251,226.095335 L213.139251,226.095335 C211.239957,227.234656 208.867479,227.235008 206.967848,226.096251 L115.040099,170.989064 Z" id="Up" fill="url(#linearGradient-5)"></path>
            <path d="M367,210.994583 L367,287.005527 C367.284828,287.81828 367.219377,288.747018 366.741538,289.543148 C366.488152,289.965316 366.134752,290.318629 365.712521,290.57191 L213.139251,382.095335 C211.239957,383.234656 208.867479,383.235008 206.967848,382.096251 L54.291128,290.572368 L54.291128,290.572368 C53.0494109,289.828006 52.5403901,288.327231 53,287.012197 L53,210.984755 C53.2226906,211.62616 53.6632352,212.19597 54.291128,212.572368 L54.291128,212.572368 L206.967848,304.096251 C208.867479,305.235008 211.239957,305.234656 213.139251,304.095335 L365.712521,212.57191 C366.134752,212.318629 366.488152,211.965316 366.741538,211.543148 C366.847894,211.365948 366.933819,211.18218 367,210.994583 Z" id="Down-Grad" fill="url(#linearGradient-6)" opacity="0.5"></path>
            <path d="M367,132.994583 L367,209.005527 C367.284828,209.81828 367.219377,210.747018 366.741538,211.543148 C366.488152,211.965316 366.134752,212.318629 365.712521,212.57191 L213.139251,304.095335 C211.239957,305.234656 208.867479,305.235008 206.967848,304.096251 L54.291128,212.572368 L54.291128,212.572368 C53.0494109,211.828006 52.5403901,210.327231 53,209.012197 L53,132.984755 C53.2226906,133.62616 53.6632352,134.19597 54.291128,134.572368 L54.291128,134.572368 L206.967848,226.096251 C208.867479,227.235008 211.239957,227.234656 213.139251,226.095335 L365.712521,134.57191 C366.134752,134.318629 366.488152,133.965316 366.741538,133.543148 C366.847894,133.365948 366.933819,133.18218 367,132.994583 Z" id="Up-Grad" fill="url(#linearGradient-7)" opacity="0.400000006"></path>
            <path d="M180.080198,209.978128 L206.966574,193.851727 L206.966574,193.851727 C208.866838,192.711952 211.240598,192.712304 213.140524,193.852643 L240.007291,209.978128 L213.139251,226.095335 C211.239957,227.234656 208.867479,227.235008 206.967848,226.096251 L180.080198,209.978128 Z" id="Center" fill="#B8AEFF"></path>
            <path d="M118,57 L302,57 L302,130.329567 L302,130.329567 C302,131.368118 301.462857,132.332795 300.580018,132.879771 L213.160036,187.042152 L213.160036,187.042152 C211.224074,188.241606 208.775926,188.241606 206.839964,187.042152 L119.419982,132.879771 L119.419982,132.879771 C118.537143,132.332795 118,131.368118 118,130.329567 L118,57 Z" id="React-Grad" fill="url(#linearGradient-8)" opacity="0.400000006"></path>
            <path d="M206.924763,1.85456855 C208.824991,0.714815051 211.198707,0.715167337 213.098597,1.85548482 L300.673164,54.4179073 L300.673164,54.4179073 C302.093779,55.2705627 302.5542,57.1134118 301.701545,58.534026 C301.448159,58.9561942 301.094759,59.3095068 300.672528,59.5627884 L213.097324,112.096123 C211.198066,113.235422 208.825632,113.235774 206.926036,112.097038 L119.291128,59.5632461 L119.291128,59.5632461 C117.87005,58.711364 117.408626,56.8687656 118.260508,55.4476876 C118.513974,55.0248648 118.867731,54.6710198 119.290492,54.417449 L206.924763,1.85456855 Z" id="React-Plane" fill="url(#linearGradient-9)"></path>
            <g id="React-Image" transform="translate(166.000000, 30.000000)" fill-rule="nonzero" fill="#FFFFFF">
                <path d="M74.2842757,7.06474517 C70.1358851,4.55218251 61.0274624,5.31687549 50.6204131,8.66695904 C44.3437178,2.64045005 37.0750161,-0.764254428 31.4115612,0.146094362 C30.0948981,0.346371096 28.9044904,0.801545491 27.840338,1.43878964 L30.690102,3.16845234 C31.2853058,2.80431283 31.8624732,2.6040361 32.4757135,2.49479424 C35.1992221,2.03961985 39.7444152,3.8785244 44.0370976,7.192194 C45.10125,8.01150791 46.1293294,8.90364972 47.1393723,9.85041246 C44.0190612,10.9974519 40.8266041,12.3629751 37.6521835,13.9105681 C33.5759389,13.5282216 29.6439861,13.3097379 25.964544,13.2551169 C26.2531277,8.3938544 28.0387393,4.75245924 30.690102,3.15024537 L27.840338,1.42058267 L27.840338,1.42058267 C24.3412608,3.55079884 22.249029,7.84764513 21.9424089,13.2733239 C12.9963145,13.4736006 5.92601405,14.748089 2.40890032,16.8783051 L5.25866426,18.6079678 C7.89199044,17.005754 13.916175,15.9133354 21.9063359,15.7130587 C21.9965183,17.9343097 22.3392114,20.3012166 23.0065612,22.7591583 C20.4273445,24.6890977 18.1727844,26.6372442 16.2969904,28.5307696 C14.7278166,27.9299394 13.2668617,27.3109023 11.9321621,26.6918651 C6.46710847,24.1064745 3.41894324,21.3572212 4.12236598,19.7003864 C4.26665783,19.3362469 4.6634604,18.9721073 5.25866426,18.6079678 L2.40890032,16.8783051 L2.40890032,16.8783051 C1.34474797,17.5337563 0.60525226,18.2620353 0.244522647,19.0631422 C-1.27054173,22.4860537 4.35684023,26.8739348 14.2949411,30.6427788 C8.81185095,36.9241855 7.56733379,42.4226922 11.6976879,44.9352548 C15.8460784,47.4478175 24.9545011,46.6831245 35.3615504,43.333041 C41.6382457,49.35955 48.9069474,52.7642544 54.5704023,51.8539056 C55.8870654,51.6536289 57.0774731,51.1984545 58.159662,50.5430034 C61.6587392,48.4127872 63.750971,44.1159409 64.0575911,38.6902621 C73.0036855,38.4899854 80.073986,37.2154971 83.5910997,35.0852809 C84.655252,34.4298298 85.3947477,33.7015508 85.7554774,32.9004438 C87.2705417,29.4775324 81.6431598,25.0896512 71.7050589,21.3208072 C77.1701126,15.0758145 78.4146297,9.57730783 74.2842757,7.06474517 Z M49.1774946,11.9806286 C50.3498659,13.2551169 51.4681277,14.6388471 52.4962071,16.0771982 C50.9450697,15.7676796 49.3758959,15.494575 47.7706491,15.2396773 C46.1654024,14.9847796 44.5421191,14.748089 42.9549088,14.5478122 C45.0110676,13.6010495 47.0852629,12.7453216 49.1774946,11.9806286 Z M56.9151448,23.742335 C57.636604,25.3809628 58.2498444,27.0013837 58.7187929,28.5489766 C56.9872907,29.8052579 55.1475697,31.0251253 53.2176663,32.1903718 C51.2877629,33.3556182 49.2857135,34.4662437 47.2295547,35.5222483 C44.650338,35.2491437 41.9989753,34.8850042 39.2935032,34.4480368 C36.6601771,34.0292763 34.0809603,33.537688 31.555853,32.9732717 C30.6359925,31.4620927 29.8243509,29.8780858 29.1028917,28.294079 C28.3814324,26.6554511 27.7681921,25.0350303 27.2992436,23.4874373 C29.0307457,22.231156 30.8704668,21.0112886 32.8003702,19.8460422 C34.7302736,18.6807957 36.732323,17.5701702 38.7884818,16.5141656 C41.3676985,16.7872702 44.0190612,17.1514098 46.7245333,17.5883772 C49.3578594,18.0071376 51.9370762,18.498726 54.4621834,19.0631422 C55.3640075,20.5743212 56.1936856,22.1401211 56.9151448,23.742335 Z M59.3681062,20.2465956 C61.7669581,20.8656328 64.0575911,21.5392909 66.2039323,22.249363 C64.9413787,23.5056443 63.5345332,24.7801326 61.9653594,26.0546209 C61.6046298,25.0896512 61.2258637,24.0882675 60.7749517,23.1050908 C60.3601126,22.1219142 59.8731276,21.1751514 59.3681062,20.2465956 Z M60.0534924,36.3051483 C57.636604,36.2869413 55.0934603,36.1776995 52.4240611,35.9774227 C53.6144689,35.3219716 54.8409495,34.6301065 56.0133208,33.9018275 C57.2037285,33.1735485 58.3760997,32.4452694 59.4763251,31.6987834 C59.8190182,33.3192043 59.999383,34.8667972 60.0534924,36.3051483 Z M43.0450912,37.5068087 C40.9708959,38.4353645 38.8786642,39.2910923 36.8044689,40.0557853 C35.6320977,38.781297 34.5138359,37.3975669 33.4857565,35.9592158 C35.0368938,36.2687344 36.6060676,36.541839 38.2113144,36.7967367 C39.8526341,37.0698413 41.4578809,37.306532 43.0450912,37.5068087 Z M25.9284711,15.7312656 C28.3453595,15.7494726 30.8885033,15.8587145 33.5579024,16.0589912 C32.3674947,16.7144423 31.141014,17.4063074 29.9686427,18.1345865 C28.778235,18.8628655 27.6058638,19.5911445 26.5056385,20.3376305 C26.1629453,18.7172097 25.9825805,17.1696167 25.9284711,15.7312656 Z M23.9985676,26 C24.3592973,26.9649697 24.7380634,27.9663534 25.1889754,28.9495301 C25.6218509,29.9144998 26.0907994,30.8794695 26.5958209,31.8080253 C24.1969689,31.1889881 21.9063359,30.51533 19.7599947,29.8052579 C21.0405848,28.5307696 22.4474303,27.2562813 23.9985676,26 Z M28.4355419,42.6593829 C21.9965183,44.2251828 16.5495011,44.4618735 14.5474518,43.2602131 C12.5454024,42.0403457 12.9241685,38.7448831 15.5214217,34.8485902 C16.1526986,33.9018275 16.9282672,32.9186508 17.7579453,31.9354741 C20.9864754,33.0096857 24.5396621,34.0110694 28.3994689,34.9032112 C29.8784603,37.2154971 31.5197801,39.3639202 33.3053917,41.2938597 C31.6460354,41.803655 30.0227522,42.2770364 28.4355419,42.6593829 Z M53.5242865,49.5416197 C50.8007779,49.9967941 46.2555848,48.1578896 41.9629024,44.84422 C40.89875,44.024906 39.8706706,43.1327642 38.8606277,42.1860015 C41.9809388,41.038962 45.1733959,39.6734388 48.3478165,38.1258459 C52.4240611,38.5081924 56.3560139,38.7266761 60.035456,38.781297 C59.7468723,43.6425596 57.9612607,47.2839547 55.309898,48.8861686 C54.7146942,49.2138941 54.1194903,49.4323779 53.5242865,49.5416197 Z M74.0498014,25.3263419 C79.5148551,27.9117325 82.5630203,30.6609858 81.8595975,32.3178206 C81.7153057,32.6819601 81.3185031,33.0460996 80.7232993,33.4102392 C78.0899731,35.012453 72.0657885,36.1048716 64.0756276,36.3051483 C63.9854452,34.0838973 63.6427521,31.7169904 62.9754023,29.2590487 C65.554619,27.3291092 67.8091791,25.3809628 69.6849731,23.4874373 C71.2541469,24.0882675 72.7331383,24.6890977 74.0498014,25.3263419 Z M70.4605418,17.2060307 C69.8292649,18.1527934 69.0536963,19.1359701 68.2240182,20.1191468 C64.9954881,19.0449352 61.4423015,18.0435516 57.5824946,17.1514098 C56.1035032,14.8391238 54.4621834,12.6907007 52.6765719,10.7607613 C54.3359281,10.232759 55.9592113,9.77758456 57.5644581,9.37703109 C64.0034817,7.81123117 69.4504989,7.57454049 71.4525482,8.77620089 C73.4365611,9.99606827 73.057795,13.3097379 70.4605418,17.2060307 Z" id="Shape"></path>
                <path d="M37.0730573,22.9667869 C40.3392982,20.9820855 45.6607018,20.9820855 48.9269427,22.9667869 C52.1931836,24.9514882 52.1931836,28.1789465 48.9269427,30.1636479 C45.6607018,32.1483493 40.3392982,32.1483493 37.0730573,30.1636479 C33.8068164,28.1789465 33.8068164,24.9514882 37.0730573,22.9667869 Z" id="Shape"></path>
            </g>
        </g>
    </g>
</svg>